<?xml version="1.0" standalone="no"?>
<!DOCTYPE svg PUBLIC "-//W3C//DTD SVG 20010904//EN"
 "http://www.w3.org/TR/2001/REC-SVG-20010904/DTD/svg10.dtd">
<svg version="1.0" xmlns="http://www.w3.org/2000/svg"
 width="1280.000000pt" height="1280.000000pt" viewBox="0 0 1280.000000 1280.000000"
 preserveAspectRatio="xMidYMid meet">
<metadata>
Created by potrace 1.11, written by Peter Selinger 2001-2013
</metadata>
<g transform="translate(0.000000,1280.000000) scale(0.100000,-0.100000)"
fill="#000000" stroke="none">
<path d="M818 8043 l-818 -3 0 -4020 0 -4020 6400 0 6400 0 0 3761 0 3762
-1202 -6 -1203 -6 107 31 c60 17 107 33 105 35 -2 1 -325 -2 -718 -8 -393 -6
-728 -9 -744 -7 l-30 3 48 29 c26 16 46 30 44 33 -3 2 -171 -1 -373 -6 -203
-6 -405 -11 -449 -11 l-80 1 40 36 40 35 -210 -6 c-115 -3 -289 -9 -385 -12
l-175 -6 28 30 28 29 -63 6 c-35 3 -220 1 -413 -5 -203 -6 -368 -7 -393 -2
l-44 9 23 29 23 29 -120 -6 c-231 -13 -564 -20 -564 -12 0 4 10 21 22 37 l21
31 -229 -7 c-126 -3 -285 -9 -353 -12 l-124 -7 23 37 c12 20 21 39 19 40 -2 2
-110 0 -239 -5 -129 -4 -295 -8 -368 -8 l-133 -1 16 31 c9 17 14 33 11 36 -3
3 -186 1 -408 -5 -330 -9 -432 -8 -563 3 -88 8 -170 14 -183 15 -19 0 -22 4
-17 21 l7 22 -328 -7 c-181 -3 -563 -9 -849 -12 l-520 -7 28 36 c15 20 27 38
27 41 0 3 -78 5 -172 4 -95 -2 -541 -4 -990 -5z"/>
</g>
</svg>
